<svg xmlns="http://www.w3.org/2000/svg" viewBox="0 0 128 128" role="img" aria-labelledby="title desc">
  <title id="title">김밥과 토스트 로고</title>
  <desc id="desc">토스트와 김밥을 단순화한 둥근 로고</desc>
  <rect width="128" height="128" rx="34" fill="#e64a2e"/>
  <path d="M15 24h98M15 49h98M15 74h98M15 99h98M31 12v104M58 12v104M85 12v104" stroke="#fff" stroke-opacity=".12" stroke-width="3"/>
  <path d="M23 42c0-11 9-20 20-20h27c11 0 20 9 20 20v42c0 8-6 14-14 14H37c-8 0-14-6-14-14z" fill="#f4ba3e" stroke="#fff4d2" stroke-width="5"/>
  <path d="M35 55c12 7 28 7 43 0" fill="none" stroke="#fff7df" stroke-width="8" stroke-linecap="round"/>
  <path d="M36 68c14 7 27 7 41 0" fill="none" stroke="#172431" stroke-opacity=".8" stroke-width="5" stroke-linecap="round"/>
  <circle cx="88" cy="79" r="25" fill="#172431" stroke="#fff4d2" stroke-width="5"/>
  <circle cx="88" cy="79" r="17" fill="#fff9e8"/>
  <path d="M88 62v34M71 79h34" stroke="#e7dcc0" stroke-width="2"/>
  <circle cx="81" cy="72" r="5" fill="#e64a2e"/>
  <circle cx="95" cy="72" r="5" fill="#f4ba3e"/>
  <circle cx="81" cy="86" r="5" fill="#6f9f6a"/>
  <circle cx="95" cy="86" r="5" fill="#e995a2"/>
</svg>
